<svg xmlns="http://www.w3.org/2000/svg" viewBox="0 0 380 128" fill="none">
  <path
    d="M62 94
       C36 94 22 80 22 61
       C22 45 34 34 50 31
       C57 18 73 10 94 10
       C112 10 126 16 137 25
       C154 14 174 8 190 8
       C206 8 226 14 243 25
       C254 16 268 10 286 10
       C307 10 323 18 330 31
       C346 34 358 45 358 61
       C358 80 344 94 318 94
       C312 108 296 116 276 116
       C257 116 242 111 230 101
       C219 111 206 116 190 116
       C174 116 161 111 150 101
       C138 111 123 116 104 116
       C84 116 68 108 62 94
       Z"
    fill="#EA4336"
  />
</svg>
