<svg xmlns="http://www.w3.org/2000/svg" viewBox="0 0 430 128" fill="none">
  <path
    d="M68 94
       C40 94 24 80 24 61
       C24 45 36 34 54 31
       C61 18 79 10 102 10
       C121 10 137 16 150 25
       C169 14 190 8 215 8
       C240 8 261 14 280 25
       C293 16 309 10 328 10
       C351 10 369 18 376 31
       C394 34 406 45 406 61
       C406 80 390 94 362 94
       C356 108 338 116 316 116
       C296 116 280 111 267 101
       C255 111 238 116 215 116
       C192 116 175 111 163 101
       C150 111 134 116 114 116
       C92 116 74 108 68 94
       Z"
    fill="#FFFDF4"
  />
</svg>
